<svg xmlns="http://www.w3.org/2000/svg" width="1200" height="630" viewBox="0 0 1200 630">
  <rect width="1200" height="630" fill="#050505"/>
  <g stroke="#fff" opacity=".08">
    <path d="M0 90h1200M0 180h1200M0 270h1200M0 360h1200M0 450h1200M0 540h1200"/>
    <path d="M100 0v630M200 0v630M300 0v630M400 0v630M500 0v630M600 0v630M700 0v630M800 0v630M900 0v630M1000 0v630M1100 0v630"/>
  </g>
  <rect x="48" y="42" width="1104" height="546" fill="none" stroke="#fff" opacity=".35"/>
  <text x="82" y="92" fill="#fff" opacity=".55" font-family="monospace" font-size="18" letter-spacing="3">OPERATOR: DURGESH TIWARI / STATUS: ACTIVE</text>
  <text x="82" y="205" fill="#fff" font-family="monospace" font-size="72" letter-spacing="2">DURGESH TIWARI</text>
  <text x="82" y="292" fill="#fff" font-family="monospace" font-size="56" letter-spacing="2">FULL STACK ENGINEER</text>
  <text x="82" y="368" fill="#fff" opacity=".68" font-family="monospace" font-size="21">REACT / TYPESCRIPT / SPRING BOOT / FLASK / NODE / AWS</text>
  <g transform="translate(82 426)" font-family="monospace">
    <rect width="226" height="104" fill="#000" stroke="#fff" opacity=".9"/>
    <text x="18" y="48" fill="#fff" font-size="31">35%</text>
    <text x="18" y="76" fill="#fff" opacity=".55" font-size="13">FASTER PAGE LOAD</text>
    <rect x="242" width="226" height="104" fill="#000" stroke="#fff" opacity=".9"/>
    <text x="260" y="48" fill="#fff" font-size="31">300ms</text>
    <text x="260" y="76" fill="#fff" opacity=".55" font-size="13">ON-DEVICE INFERENCE</text>
    <rect x="484" width="226" height="104" fill="#000" stroke="#fff" opacity=".9"/>
    <text x="502" y="48" fill="#fff" font-size="31">98%</text>
    <text x="502" y="76" fill="#fff" opacity=".55" font-size="13">COMMAND SUCCESS</text>
  </g>
  <g transform="translate(970 140)" fill="#fff" font-family="monospace" font-size="14" text-anchor="middle">
    <circle r="83" fill="none" stroke="#fff" opacity=".32"/>
    <text y="-45" opacity=".32">..::##@@##::..</text>
    <text y="-23" opacity=".52">.:+#@@@@@@#+:.</text>
    <text y="-1">:+@@@@@@@@@@+:</text>
    <text y="21" opacity=".78">:+@@@@@@@@@@+:</text>
    <text y="43" opacity=".42">.:+#@@@@@@#+:.</text>
  </g>
</svg>
